<svg width="30" height="30" viewBox="0 0 30 30" fill="none" xmlns="http://www.w3.org/2000/svg">
<g id="&#240;&#159;&#166;&#134; icon &#34;google contained fill&#34;">
<path id="Vector" fill-rule="evenodd" clip-rule="evenodd" d="M15 0C6.71557 0 0 6.71584 0 14.9997C0 23.2841 6.71557 30 15 30C23.2839 30 30 23.2842 30 14.9997C30 6.71584 23.2839 0 15 0ZM15.1752 23.773C10.3404 23.773 6.42429 19.847 6.42429 14.9999C6.42429 10.1529 10.3404 6.22689 15.1752 6.22689C17.5381 6.22689 19.5121 7.09866 21.0275 8.51339L18.5604 10.9863V10.9808C17.6417 10.1034 16.4769 9.65391 15.1752 9.65391C12.2875 9.65391 9.94121 12.0993 9.94121 14.9946C9.94121 17.8892 12.2876 20.3406 15.1752 20.3406C17.7951 20.3406 19.5779 18.8382 19.9448 16.7766H15.1752V13.355H23.4063C23.5158 13.9415 23.5756 14.5557 23.5756 15.1972C23.5756 20.209 20.2289 23.773 15.1752 23.773Z" fill="white"/>
</g>
</svg>
